HIERARCHY
ROOT SpineBase
{
  OFFSET 0.000000 0.000000 0.000000
  CHANNELS 6 Xposition Yposition Zposition Zrotation Xrotation Yrotation
  JOINT SpineMid
  {
    OFFSET 0.000000 25.055874 0.000000
    CHANNELS 3 Zrotation Xrotation Yrotation
    JOINT SpineShoulder
    {
      OFFSET 0.172495 18.961257 -0.974238
      CHANNELS 3 Zrotation Xrotation Yrotation
      JOINT Neck
      {
        OFFSET 0.087879 6.386820 -0.646006
        CHANNELS 3 Zrotation Xrotation Yrotation
        JOINT Head
        {
          OFFSET 1.569313 14.505215 -0.654690
          CHANNELS 3 Zrotation Xrotation Yrotation
          End Site
          {
            OFFSET 0 0 0
          }
        }
      }
      JOINT ShoulderLeft
      {
        OFFSET -12.075918 -0.441187 -8.070419
        CHANNELS 3 Zrotation Xrotation Yrotation
        JOINT ElbowLeft
        {
          OFFSET -5.910537 -18.398729 -8.234951
          CHANNELS 3 Zrotation Xrotation Yrotation
          JOINT WristLeft
          {
            OFFSET 9.624820 -10.351843 -19.236516
            CHANNELS 3 Zrotation Xrotation Yrotation
            JOINT HandLeft
            {
              OFFSET 3.170578 -1.297083 -3.480641
              CHANNELS 3 Zrotation Xrotation Yrotation
              JOINT HandTipLeft
              {
                OFFSET 0.846931 -3.449596 -3.666103
                CHANNELS 3 Zrotation Xrotation Yrotation
                End Site
                {
                  OFFSET 0 0 0
                }
              }
              JOINT ThumbLeft
              {
                OFFSET -2.340402 0.191451 -2.083459
                CHANNELS 3 Zrotation Xrotation Yrotation
                End Site
                {
                  OFFSET 0 0 0
                }
              }
            }
          }
        }
      }
      JOINT ShoulderRight
      {
        OFFSET 15.918180 -0.694925 6.213121
        CHANNELS 3 Zrotation Xrotation Yrotation
        JOINT ElbowRight
        {
          OFFSET 7.712953 -18.193420 1.050447
          CHANNELS 3 Zrotation Xrotation Yrotation
          JOINT WristRight
          {
            OFFSET 11.191313 -15.181659 -20.874586
            CHANNELS 3 Zrotation Xrotation Yrotation
            JOINT HandRight
            {
              OFFSET 2.384745 -3.630558 -5.155379
              CHANNELS 3 Zrotation Xrotation Yrotation
              JOINT HandTipRight
              {
                OFFSET 3.476524 -4.383379 -4.254872
                CHANNELS 3 Zrotation Xrotation Yrotation
                End Site
                {
                  OFFSET 0 0 0
                }
              }
              JOINT ThumbRight
              {
                OFFSET 4.002728 2.467576 -0.399423
                CHANNELS 3 Zrotation Xrotation Yrotation
                End Site
                {
                  OFFSET 0 0 0
                }
              }
            }
          }
        }
      }
    }
  }
  JOINT HipLeft
  {
    OFFSET -5.946402 1.779026 -5.713601
    CHANNELS 3 Zrotation Xrotation Yrotation
    JOINT KneeLeft
    {
      OFFSET 4.068259 9.078997 -32.913547
      CHANNELS 3 Zrotation Xrotation Yrotation
      JOINT AnkleLeft
      {
        OFFSET 9.555647 -36.342355 -5.949788
        CHANNELS 3 Zrotation Xrotation Yrotation
        JOINT FootLeft
        {
          OFFSET 4.669649 -2.598429 -9.325106
          CHANNELS 3 Zrotation Xrotation Yrotation
          End Site
          {
            OFFSET 0 0 0
          }
        }
      }
    }
  }
  JOINT HipRight
  {
    OFFSET 6.972553 1.434052 -0.155207
    CHANNELS 3 Zrotation Xrotation Yrotation
    JOINT KneeRight
    {
      OFFSET 30.678155 1.864801 -16.250411
      CHANNELS 3 Zrotation Xrotation Yrotation
      JOINT AnkleRight
      {
        OFFSET -1.709454 -28.973069 -9.306264
        CHANNELS 3 Zrotation Xrotation Yrotation
        JOINT FootRight
        {
          OFFSET 5.081155 -1.606593 -12.096179
          CHANNELS 3 Zrotation Xrotation Yrotation
          End Site
          {
            OFFSET 0 0 0
          }
        }
      }
    }
  }
}
MOTION
Frames: 10
Frame Time: 0.033333
-57.225177 29.334850 353.809935 -0.000000 0.000000 -23.279841 0.000000 0.000000 23.279841 -0.000000 0.000000 0.000000 -0.000000 0.000000 0.000000 0.000000 0.000000 0.000000 -0.000000 0.000000 0.000000 -0.000000 0.000000 0.000000 -0.000000 0.000000 0.000000 -0.000000 0.000000 0.000000 0.000000 0.000000 0.000000 0.000000 0.000000 0.000000 -0.000000 0.000000 0.000000 -0.000000 0.000000 0.000000 -0.000000 0.000000 0.000000 -0.000000 0.000000 0.000000 0.000000 0.000000 0.000000 0.000000 0.000000 0.000000 0.000000 0.000000 23.279841 -0.000000 0.000000 0.000000 -0.000000 0.000000 0.000000 0.000000 0.000000 0.000000 0.000000 0.000000 23.279841 -0.000000 0.000000 0.000000 -0.000000 0.000000 0.000000 0.000000 0.000000 0.000000
-56.796343 29.343463 353.916160 0.860088 -0.475976 -22.846157 -0.977412 0.104658 22.850623 0.977454 -0.525229 0.110537 -1.829119 0.435939 -0.122839 0.000000 0.000000 0.000000 -1.329970 -0.374288 0.347302 0.358976 0.899158 -0.451214 -0.000000 0.000000 0.000000 -0.301419 1.944423 0.789150 0.000000 0.000000 0.000000 0.000000 0.000000 0.000000 -0.976480 0.527037 -0.101566 -0.000000 0.000000 0.000000 0.226221 -0.813859 -0.861779 -2.573970 -2.260758 0.734664 0.000000 0.000000 0.000000 0.000000 0.000000 0.000000 -0.508915 -0.711783 23.663833 -0.101438 0.935825 -0.809900 -0.000000 0.000000 0.000000 0.000000 0.000000 0.000000 -0.977412 0.104658 22.850623 -0.000000 0.000000 0.000000 -0.000000 0.000000 0.000000 0.000000 0.000000 0.000000
-56.419626 29.350313 354.001136 1.620432 -0.885526 -22.493786 -0.328592 -0.017620 22.581464 0.518672 -0.180827 0.123051 -3.428700 0.755044 -0.207966 0.000000 0.000000 0.000000 -2.569439 -0.793042 0.717833 0.765863 1.745953 -0.911111 -0.000000 0.000000 0.000000 -0.191823 3.963370 1.142381 0.000000 0.000000 0.000000 0.000000 0.000000 0.000000 -1.260070 1.525130 0.076412 -0.566385 -0.561866 -0.274176 0.402317 -1.458394 -1.548495 -4.470137 -3.870269 1.383849 0.000000 0.000000 0.000000 0.000000 0.000000 0.000000 -1.033278 -1.034208 24.071316 -0.230409 1.452326 -1.553057 0.558505 1.348069 0.391838 0.000000 0.000000 0.000000 -1.872576 0.040823 23.816338 0.096980 0.128923 -1.306890 -0.000000 0.000000 0.000000 0.000000 0.000000 0.000000
-56.095028 29.355402 354.064862 2.281242 -1.228751 -22.225088 -0.443931 -0.010477 22.356406 0.689120 -0.225261 0.169093 -4.800120 0.956222 -0.265120 0.000000 0.000000 0.000000 -3.719962 -1.253739 1.105766 1.924653 3.184970 -2.063124 -0.835254 -0.424472 1.660763 0.618174 5.718222 -0.014026 0.000000 0.000000 0.000000 0.000000 0.000000 0.000000 -1.792197 2.182382 0.145175 -1.177610 -0.491308 0.430472 0.928374 -2.360886 -2.950268 -5.781267 -4.828793 2.019913 0.000000 0.000000 0.000000 0.000000 0.000000 0.000000 -1.567213 -0.984339 24.507470 0.380584 1.331153 -2.441040 0.078386 2.320455 0.795850 0.000000 0.000000 0.000000 -2.626096 0.055077 24.095133 -0.153508 -0.614530 -1.708626 0.264346 0.802192 -0.133808 0.000000 0.000000 0.000000
-55.822548 29.358729 354.107339 2.842835 -1.505882 -22.042084 -0.525913 0.005592 22.213757 0.801193 -0.239995 0.205000 -5.944651 1.038966 -0.302289 0.000000 0.000000 0.000000 -4.783143 -1.753933 1.505696 2.670525 4.027869 -2.874324 -0.991495 -0.060663 2.932830 1.683371 7.098332 -1.610899 0.000000 0.000000 0.000000 0.000000 0.000000 0.000000 -2.261689 2.770161 0.233494 -1.329121 -0.722348 0.375209 1.049983 -2.861490 -3.486602 -6.565081 -5.122727 2.696052 0.000000 0.000000 0.000000 0.000000 0.000000 0.000000 -2.110222 -0.569687 24.978621 0.350958 1.227362 -3.058254 0.230958 2.939070 1.010545 0.000000 0.000000 0.000000 -3.258728 0.058941 24.375139 -0.188888 -0.778821 -2.127667 0.315869 1.011635 -0.163500 0.000000 0.000000 0.000000
-55.602185 29.360294 354.128567 3.305572 -1.717205 -21.946517 -0.574319 0.029761 22.153433 0.855492 -0.225570 0.230909 -6.863370 1.003060 -0.325698 0.000000 0.000000 0.000000 -5.760480 -2.291374 1.912643 3.474962 4.761399 -3.756557 -1.120893 0.488987 4.446598 3.161664 8.082830 -3.839178 0.000000 0.000000 0.000000 0.000000 0.000000 0.000000 -2.670277 3.288850 0.340918 -1.360179 -0.987528 0.222642 1.096650 -3.249322 -3.836353 -6.845802 -4.703423 3.453788 0.000000 0.000000 0.000000 0.000000 0.000000 0.000000 -2.667286 0.211676 25.492176 0.234320 0.852470 -3.587804 0.442261 3.463312 1.196469 0.000000 0.000000 0.000000 -3.771215 0.048994 24.652778 -0.214708 -0.925284 -2.465748 0.349281 1.193101 -0.185637 0.000000 0.000000 0.000000
-55.448864 29.359991 354.119634 3.650437 -1.853353 -21.961907 -0.619109 0.040961 22.194815 0.784190 -0.154231 0.236724 -7.493449 0.785669 -0.330881 0.000000 0.000000 0.000000 -6.520417 -2.809831 2.299588 4.245492 5.221614 -4.614012 -2.064836 0.666531 7.225850 6.008785 7.531769 -8.053259 0.000000 0.000000 0.000000 0.000000 0.000000 0.000000 -3.341421 3.702500 0.471331 -0.655567 -1.290659 -0.221159 1.017277 -2.939994 -3.492461 -5.594736 -2.254454 4.260161 0.000000 0.000000 0.000000 0.000000 0.000000 0.000000 -3.321869 1.799526 26.215758 0.015901 -0.036124 -4.133615 1.182999 5.212760 1.847917 0.000000 0.000000 0.000000 -4.148083 0.014683 24.924355 -0.247992 -1.051335 -2.690196 0.390184 1.346510 -0.208618 0.000000 0.000000 0.000000
-55.372322 29.350023 354.108644 3.805588 -1.956448 -22.022815 -0.664164 0.134150 22.266646 0.571288 -0.068708 0.221438 -7.478219 0.345816 -0.306834 0.000000 0.000000 0.000000 -6.587222 -3.236398 2.461525 3.903762 5.097639 -4.334857 -0.177725 3.048524 6.986395 6.456647 7.526809 -9.602876 0.000000 0.000000 0.000000 0.000000 0.000000 0.000000 -4.117904 3.700144 0.502643 0.548871 -1.099099 -0.469534 0.796543 -3.811113 -3.805496 -4.976510 0.456341 5.822792 0.000000 0.000000 0.000000 0.000000 0.000000 0.000000 -4.012226 4.318880 27.324549 -0.175038 -1.630277 -4.985843 1.681060 6.944295 2.614427 0.000000 0.000000 0.000000 -4.335085 0.028275 25.138533 -0.226203 -1.130126 -2.835912 0.373255 1.440418 -0.208772 0.000000 0.000000 0.000000
-55.285882 29.343290 354.059033 4.016802 -1.945242 -22.176738 -0.562118 0.196599 22.437177 0.572220 0.011630 0.234172 -8.001851 -0.126561 -0.322949 0.000000 0.000000 0.000000 -8.111376 -4.242594 3.208307 5.850298 5.872377 -6.409454 -0.654547 3.756752 9.081019 8.761675 8.473089 -12.343389 0.000000 0.000000 0.000000 0.000000 0.000000 0.000000 -4.000605 3.665267 0.507293 -0.148798 -2.095501 -0.899309 1.472639 -2.599926 -3.856185 -5.734434 2.843216 8.652630 0.000000 0.000000 0.000000 0.000000 0.000000 0.000000 -4.371051 5.079133 27.979951 -0.371659 -2.037378 -5.375431 0.957084 4.489005 1.792026 0.000000 0.000000 0.000000 -4.522809 -0.078449 25.393970 -0.174764 -1.235492 -2.950709 0.312608 1.549141 -0.195228 0.000000 0.000000 0.000000
-55.259488 29.357208 353.952518 4.146377 -1.828739 -22.331132 -0.301056 0.253495 22.605407 0.562166 0.169320 0.244508 -8.651652 -0.723650 -0.359446 0.000000 0.000000 0.000000 -9.434366 -5.512930 3.853434 8.440796 7.776782 -8.898791 -2.251913 2.453102 10.847951 11.941406 9.363755 -15.140503 0.000000 0.000000 0.000000 0.000000 0.000000 0.000000 -3.170283 3.436300 0.485164 -1.940440 -2.659392 -0.664470 1.433716 -2.221010 -3.523717 -4.244543 4.882391 8.249543 0.000000 0.000000 0.000000 0.000000 0.000000 0.000000 -4.792653 5.753617 27.915412 -0.882937 -2.484855 -4.992405 1.436317 4.158464 1.723535 0.000000 0.000000 0.000000 -5.113796 -0.900941 25.500595 0.578114 -0.671489 -2.927457 0.316960 1.352873 -0.184706 0.000000 0.000000 0.000000
